<?xml version="1.0" encoding="UTF-8" standalone="no"?>
<!DOCTYPE svg PUBLIC "-//W3C//DTD SVG 1.1//EN"
 "http://www.w3.org/Graphics/SVG/1.1/DTD/svg11.dtd">
<!-- Generated by graphviz version 2.47.0 (20210316.0004)
 -->
<!-- Title: dependencies Pages: 1 -->
<svg width="730pt" height="211pt"
 viewBox="0.00 0.00 730.00 211.00" xmlns="http://www.w3.org/2000/svg" xmlns:xlink="http://www.w3.org/1999/xlink">
<g id="graph0" class="graph" transform="scale(1 1) rotate(0) translate(4 207)">
<title>dependencies</title>
<polygon fill="white" stroke="transparent" points="-4,4 -4,-207 726,-207 726,4 -4,4"/>
<text text-anchor="start" x="340.01" y="-42.4" font-family="Times-12" font-weight="bold" font-size="14.00">Legend</text>
<polygon fill="#ffffb3" stroke="transparent" points="127,-10 127,-30 147,-30 147,-10 127,-10"/>
<text text-anchor="start" x="150.63" y="-15.4" font-family="Times-12" font-size="14.00"> &#160;Declarations</text>
<polygon fill="#8dd3c7" stroke="transparent" points="240,-10 240,-30 260,-30 260,-10 240,-10"/>
<text text-anchor="start" x="263.73" y="-15.4" font-family="Times-12" font-size="14.00"> &#160;Module</text>
<polygon fill="#80b1d3" stroke="transparent" points="326,-10 326,-30 346,-30 346,-10 326,-10"/>
<text text-anchor="start" x="349.78" y="-15.4" font-family="Times-12" font-size="14.00"> &#160;Bootstrap</text>
<polygon fill="#fdb462" stroke="transparent" points="423,-10 423,-30 443,-30 443,-10 423,-10"/>
<text text-anchor="start" x="446.67" y="-15.4" font-family="Times-12" font-size="14.00"> &#160;Providers</text>
<polygon fill="#fb8072" stroke="transparent" points="519,-10 519,-30 539,-30 539,-10 519,-10"/>
<text text-anchor="start" x="542.73" y="-15.4" font-family="Times-12" font-size="14.00"> &#160;Exports</text>
<g id="clust1" class="cluster">
<title>cluster_DynamicDivsModule</title>
<polygon fill="none" stroke="black" stroke-dasharray="1,5" points="8,-70 8,-195 714,-195 714,-70 8,-70"/>
</g>
<g id="clust4" class="cluster">
<title>cluster_DynamicDivsModule_imports</title>
<polygon fill="none" stroke="black" points="200,-78 200,-130 706,-130 706,-78 200,-78"/>
</g>
<g id="clust2" class="cluster">
<title>cluster_DynamicDivsModule_declarations</title>
<polygon fill="none" stroke="black" points="16,-78 16,-130 192,-130 192,-78 16,-78"/>
</g>
<!-- DynamicDivsComponent -->
<g id="node1" class="node">
<title>DynamicDivsComponent</title>
<polygon fill="#ffffb3" stroke="black" points="183.59,-122 24.41,-122 24.41,-86 183.59,-86 183.59,-122"/>
<text text-anchor="middle" x="104" y="-99.8" font-family="Times,serif" font-size="14.00">DynamicDivsComponent</text>
</g>
<!-- DynamicDivsModule -->
<g id="node2" class="node">
<title>DynamicDivsModule</title>
<polygon fill="#8dd3c7" stroke="black" points="424.81,-187 421.81,-191 400.81,-191 397.81,-187 287.19,-187 287.19,-151 424.81,-151 424.81,-187"/>
<text text-anchor="middle" x="356" y="-164.8" font-family="Times,serif" font-size="14.00">DynamicDivsModule</text>
</g>
<!-- DynamicDivsComponent&#45;&gt;DynamicDivsModule -->
<g id="edge1" class="edge">
<title>DynamicDivsComponent&#45;&gt;DynamicDivsModule</title>
<path fill="none" stroke="black" d="M104,-122.11C104,-141.34 104,-169 104,-169 104,-169 277.14,-169 277.14,-169"/>
<polygon fill="black" stroke="black" points="277.14,-172.5 287.14,-169 277.14,-165.5 277.14,-172.5"/>
</g>
<!-- DetectBottomDirective -->
<g id="node3" class="node">
<title>DetectBottomDirective</title>
<polygon fill="#8dd3c7" stroke="black" points="698.12,-122 695.12,-126 674.12,-126 671.12,-122 551.88,-122 551.88,-86 698.12,-86 698.12,-122"/>
<text text-anchor="middle" x="625" y="-99.8" font-family="Times,serif" font-size="14.00">DetectBottomDirective</text>
</g>
<!-- DetectBottomDirective&#45;&gt;DynamicDivsModule -->
<g id="edge2" class="edge">
<title>DetectBottomDirective&#45;&gt;DynamicDivsModule</title>
<path fill="none" stroke="black" d="M625,-122.11C625,-141.34 625,-169 625,-169 625,-169 434.92,-169 434.92,-169"/>
<polygon fill="black" stroke="black" points="434.92,-165.5 424.92,-169 434.92,-172.5 434.92,-165.5"/>
</g>
<!-- DynamicDivsRoutingModule -->
<g id="node4" class="node">
<title>DynamicDivsRoutingModule</title>
<polygon fill="#8dd3c7" stroke="black" points="533.43,-122 530.43,-126 509.43,-126 506.43,-122 350.57,-122 350.57,-86 533.43,-86 533.43,-122"/>
<text text-anchor="middle" x="442" y="-99.8" font-family="Times,serif" font-size="14.00">DynamicDivsRoutingModule</text>
</g>
<!-- DynamicDivsRoutingModule&#45;&gt;DynamicDivsModule -->
<g id="edge3" class="edge">
<title>DynamicDivsRoutingModule&#45;&gt;DynamicDivsModule</title>
<path fill="none" stroke="black" d="M387.72,-122.11C387.72,-122.11 387.72,-140.99 387.72,-140.99"/>
<polygon fill="black" stroke="black" points="384.22,-140.99 387.72,-150.99 391.22,-140.99 384.22,-140.99"/>
</g>
<!-- SpinnerComponent -->
<g id="node5" class="node">
<title>SpinnerComponent</title>
<polygon fill="#8dd3c7" stroke="black" points="332.38,-122 329.38,-126 308.38,-126 305.38,-122 207.62,-122 207.62,-86 332.38,-86 332.38,-122"/>
<text text-anchor="middle" x="270" y="-99.8" font-family="Times,serif" font-size="14.00">SpinnerComponent</text>
</g>
<!-- SpinnerComponent&#45;&gt;DynamicDivsModule -->
<g id="edge4" class="edge">
<title>SpinnerComponent&#45;&gt;DynamicDivsModule</title>
<path fill="none" stroke="black" d="M309.89,-122.11C309.89,-122.11 309.89,-140.99 309.89,-140.99"/>
<polygon fill="black" stroke="black" points="306.39,-140.99 309.89,-150.99 313.39,-140.99 306.39,-140.99"/>
</g>
</g>
</svg>
