<?xml version="1.0" encoding="UTF-8" standalone="no"?>
<!DOCTYPE svg PUBLIC "-//W3C//DTD SVG 1.1//EN"
 "http://www.w3.org/Graphics/SVG/1.1/DTD/svg11.dtd">
<!-- Generated by graphviz version 2.47.0 (20210316.0004)
 -->
<!-- Title: dependencies Pages: 1 -->
<svg width="504pt" height="211pt"
 viewBox="0.00 0.00 504.00 211.00" xmlns="http://www.w3.org/2000/svg" xmlns:xlink="http://www.w3.org/1999/xlink">
<g id="graph0" class="graph" transform="scale(1 1) rotate(0) translate(4 207)">
<title>dependencies</title>
<polygon fill="white" stroke="transparent" points="-4,4 -4,-207 500,-207 500,4 -4,4"/>
<text text-anchor="start" x="227.01" y="-42.4" font-family="Times-12" font-weight="bold" font-size="14.00">Legend</text>
<polygon fill="#ffffb3" stroke="transparent" points="14,-10 14,-30 34,-30 34,-10 14,-10"/>
<text text-anchor="start" x="37.63" y="-15.4" font-family="Times-12" font-size="14.00"> &#160;Declarations</text>
<polygon fill="#8dd3c7" stroke="transparent" points="127,-10 127,-30 147,-30 147,-10 127,-10"/>
<text text-anchor="start" x="150.73" y="-15.4" font-family="Times-12" font-size="14.00"> &#160;Module</text>
<polygon fill="#80b1d3" stroke="transparent" points="213,-10 213,-30 233,-30 233,-10 213,-10"/>
<text text-anchor="start" x="236.78" y="-15.4" font-family="Times-12" font-size="14.00"> &#160;Bootstrap</text>
<polygon fill="#fdb462" stroke="transparent" points="310,-10 310,-30 330,-30 330,-10 310,-10"/>
<text text-anchor="start" x="333.67" y="-15.4" font-family="Times-12" font-size="14.00"> &#160;Providers</text>
<polygon fill="#fb8072" stroke="transparent" points="406,-10 406,-30 426,-30 426,-10 406,-10"/>
<text text-anchor="start" x="429.73" y="-15.4" font-family="Times-12" font-size="14.00"> &#160;Exports</text>
<g id="clust1" class="cluster">
<title>cluster_HomeContentModule</title>
<polygon fill="none" stroke="black" stroke-dasharray="1,5" points="48,-70 48,-195 448,-195 448,-70 48,-70"/>
</g>
<g id="clust4" class="cluster">
<title>cluster_HomeContentModule_imports</title>
<polygon fill="none" stroke="black" points="240,-78 240,-130 440,-130 440,-78 240,-78"/>
</g>
<g id="clust2" class="cluster">
<title>cluster_HomeContentModule_declarations</title>
<polygon fill="none" stroke="black" points="56,-78 56,-130 232,-130 232,-78 56,-78"/>
</g>
<!-- HomeContentComponent -->
<g id="node1" class="node">
<title>HomeContentComponent</title>
<polygon fill="#ffffb3" stroke="black" points="223.88,-122 64.12,-122 64.12,-86 223.88,-86 223.88,-122"/>
<text text-anchor="middle" x="144" y="-99.8" font-family="Times,serif" font-size="14.00">HomeContentComponent</text>
</g>
<!-- HomeContentModule -->
<g id="node2" class="node">
<title>HomeContentModule</title>
<polygon fill="#8dd3c7" stroke="black" points="311.09,-187 308.09,-191 287.09,-191 284.09,-187 172.91,-187 172.91,-151 311.09,-151 311.09,-187"/>
<text text-anchor="middle" x="242" y="-164.8" font-family="Times,serif" font-size="14.00">HomeContentModule</text>
</g>
<!-- HomeContentComponent&#45;&gt;HomeContentModule -->
<g id="edge1" class="edge">
<title>HomeContentComponent&#45;&gt;HomeContentModule</title>
<path fill="none" stroke="black" d="M198.45,-122.11C198.45,-122.11 198.45,-140.99 198.45,-140.99"/>
<polygon fill="black" stroke="black" points="194.95,-140.99 198.45,-150.99 201.95,-140.99 194.95,-140.99"/>
</g>
<!-- HomeContentRoutingModule -->
<g id="node3" class="node">
<title>HomeContentRoutingModule</title>
<polygon fill="#8dd3c7" stroke="black" points="431.71,-122 428.71,-126 407.71,-126 404.71,-122 248.29,-122 248.29,-86 431.71,-86 431.71,-122"/>
<text text-anchor="middle" x="340" y="-99.8" font-family="Times,serif" font-size="14.00">HomeContentRoutingModule</text>
</g>
<!-- HomeContentRoutingModule&#45;&gt;HomeContentModule -->
<g id="edge2" class="edge">
<title>HomeContentRoutingModule&#45;&gt;HomeContentModule</title>
<path fill="none" stroke="black" d="M279.72,-122.11C279.72,-122.11 279.72,-140.99 279.72,-140.99"/>
<polygon fill="black" stroke="black" points="276.22,-140.99 279.72,-150.99 283.22,-140.99 276.22,-140.99"/>
</g>
</g>
</svg>
