<?xml version="1.0" encoding="UTF-8" standalone="no"?>
<!DOCTYPE svg PUBLIC "-//W3C//DTD SVG 1.1//EN"
 "http://www.w3.org/Graphics/SVG/1.1/DTD/svg11.dtd">
<!-- Generated by graphviz version 2.47.0 (20210316.0004)
 -->
<!-- Title: dependencies Pages: 1 -->
<svg width="619pt" height="211pt"
 viewBox="0.00 0.00 619.00 211.00" xmlns="http://www.w3.org/2000/svg" xmlns:xlink="http://www.w3.org/1999/xlink">
<g id="graph0" class="graph" transform="scale(1 1) rotate(0) translate(4 207)">
<title>dependencies</title>
<polygon fill="white" stroke="transparent" points="-4,4 -4,-207 615,-207 615,4 -4,4"/>
<text text-anchor="start" x="284.51" y="-42.4" font-family="Times-12" font-weight="bold" font-size="14.00">Legend</text>
<polygon fill="#ffffb3" stroke="transparent" points="71.5,-10 71.5,-30 91.5,-30 91.5,-10 71.5,-10"/>
<text text-anchor="start" x="95.13" y="-15.4" font-family="Times-12" font-size="14.00"> &#160;Declarations</text>
<polygon fill="#8dd3c7" stroke="transparent" points="184.5,-10 184.5,-30 204.5,-30 204.5,-10 184.5,-10"/>
<text text-anchor="start" x="208.23" y="-15.4" font-family="Times-12" font-size="14.00"> &#160;Module</text>
<polygon fill="#80b1d3" stroke="transparent" points="270.5,-10 270.5,-30 290.5,-30 290.5,-10 270.5,-10"/>
<text text-anchor="start" x="294.28" y="-15.4" font-family="Times-12" font-size="14.00"> &#160;Bootstrap</text>
<polygon fill="#fdb462" stroke="transparent" points="367.5,-10 367.5,-30 387.5,-30 387.5,-10 367.5,-10"/>
<text text-anchor="start" x="391.17" y="-15.4" font-family="Times-12" font-size="14.00"> &#160;Providers</text>
<polygon fill="#fb8072" stroke="transparent" points="463.5,-10 463.5,-30 483.5,-30 483.5,-10 463.5,-10"/>
<text text-anchor="start" x="487.23" y="-15.4" font-family="Times-12" font-size="14.00"> &#160;Exports</text>
<g id="clust1" class="cluster">
<title>cluster_EcommercePageModule</title>
<polygon fill="none" stroke="black" stroke-dasharray="1,5" points="8,-70 8,-195 603,-195 603,-70 8,-70"/>
</g>
<g id="clust2" class="cluster">
<title>cluster_EcommercePageModule_declarations</title>
<polygon fill="none" stroke="black" points="403,-78 403,-130 595,-130 595,-78 403,-78"/>
</g>
<g id="clust4" class="cluster">
<title>cluster_EcommercePageModule_imports</title>
<polygon fill="none" stroke="black" points="16,-78 16,-130 395,-130 395,-78 16,-78"/>
</g>
<!-- EcommercePageComponent -->
<g id="node1" class="node">
<title>EcommercePageComponent</title>
<polygon fill="#ffffb3" stroke="black" points="586.9,-122 411.1,-122 411.1,-86 586.9,-86 586.9,-122"/>
<text text-anchor="middle" x="499" y="-99.8" font-family="Times,serif" font-size="14.00">EcommercePageComponent</text>
</g>
<!-- EcommercePageModule -->
<g id="node2" class="node">
<title>EcommercePageModule</title>
<polygon fill="#8dd3c7" stroke="black" points="390.61,-187 387.61,-191 366.61,-191 363.61,-187 237.39,-187 237.39,-151 390.61,-151 390.61,-187"/>
<text text-anchor="middle" x="314" y="-164.8" font-family="Times,serif" font-size="14.00">EcommercePageModule</text>
</g>
<!-- EcommercePageComponent&#45;&gt;EcommercePageModule -->
<g id="edge1" class="edge">
<title>EcommercePageComponent&#45;&gt;EcommercePageModule</title>
<path fill="none" stroke="black" d="M499,-122.11C499,-141.34 499,-169 499,-169 499,-169 400.85,-169 400.85,-169"/>
<polygon fill="black" stroke="black" points="400.85,-165.5 390.85,-169 400.85,-172.5 400.85,-165.5"/>
</g>
<!-- DetectBottomDirective -->
<g id="node3" class="node">
<title>DetectBottomDirective</title>
<polygon fill="#8dd3c7" stroke="black" points="387.12,-122 384.12,-126 363.12,-126 360.12,-122 240.88,-122 240.88,-86 387.12,-86 387.12,-122"/>
<text text-anchor="middle" x="314" y="-99.8" font-family="Times,serif" font-size="14.00">DetectBottomDirective</text>
</g>
<!-- DetectBottomDirective&#45;&gt;EcommercePageModule -->
<g id="edge2" class="edge">
<title>DetectBottomDirective&#45;&gt;EcommercePageModule</title>
<path fill="none" stroke="black" d="M314,-122.11C314,-122.11 314,-140.99 314,-140.99"/>
<polygon fill="black" stroke="black" points="310.5,-140.99 314,-150.99 317.5,-140.99 310.5,-140.99"/>
</g>
<!-- EcommercePageRoutingModule -->
<g id="node4" class="node">
<title>EcommercePageRoutingModule</title>
<polygon fill="#8dd3c7" stroke="black" points="222.23,-122 219.23,-126 198.23,-126 195.23,-122 23.77,-122 23.77,-86 222.23,-86 222.23,-122"/>
<text text-anchor="middle" x="123" y="-99.8" font-family="Times,serif" font-size="14.00">EcommercePageRoutingModule</text>
</g>
<!-- EcommercePageRoutingModule&#45;&gt;EcommercePageModule -->
<g id="edge3" class="edge">
<title>EcommercePageRoutingModule&#45;&gt;EcommercePageModule</title>
<path fill="none" stroke="black" d="M123,-122.11C123,-141.34 123,-169 123,-169 123,-169 227.14,-169 227.14,-169"/>
<polygon fill="black" stroke="black" points="227.14,-172.5 237.14,-169 227.14,-165.5 227.14,-172.5"/>
</g>
</g>
</svg>
