<?xml version="1.0" encoding="UTF-8" standalone="no"?>
<!DOCTYPE svg PUBLIC "-//W3C//DTD SVG 1.1//EN"
 "http://www.w3.org/Graphics/SVG/1.1/DTD/svg11.dtd">
<!-- Generated by graphviz version 2.47.0 (20210316.0004)
 -->
<!-- Title: dependencies Pages: 1 -->
<svg width="1115pt" height="211pt"
 viewBox="0.00 0.00 1115.00 211.00" xmlns="http://www.w3.org/2000/svg" xmlns:xlink="http://www.w3.org/1999/xlink">
<g id="graph0" class="graph" transform="scale(1 1) rotate(0) translate(4 207)">
<title>dependencies</title>
<polygon fill="white" stroke="transparent" points="-4,4 -4,-207 1111,-207 1111,4 -4,4"/>
<text text-anchor="start" x="532.51" y="-42.4" font-family="Times-12" font-weight="bold" font-size="14.00">Legend</text>
<polygon fill="#ffffb3" stroke="transparent" points="319.5,-10 319.5,-30 339.5,-30 339.5,-10 319.5,-10"/>
<text text-anchor="start" x="343.13" y="-15.4" font-family="Times-12" font-size="14.00"> &#160;Declarations</text>
<polygon fill="#8dd3c7" stroke="transparent" points="432.5,-10 432.5,-30 452.5,-30 452.5,-10 432.5,-10"/>
<text text-anchor="start" x="456.23" y="-15.4" font-family="Times-12" font-size="14.00"> &#160;Module</text>
<polygon fill="#80b1d3" stroke="transparent" points="518.5,-10 518.5,-30 538.5,-30 538.5,-10 518.5,-10"/>
<text text-anchor="start" x="542.28" y="-15.4" font-family="Times-12" font-size="14.00"> &#160;Bootstrap</text>
<polygon fill="#fdb462" stroke="transparent" points="615.5,-10 615.5,-30 635.5,-30 635.5,-10 615.5,-10"/>
<text text-anchor="start" x="639.17" y="-15.4" font-family="Times-12" font-size="14.00"> &#160;Providers</text>
<polygon fill="#fb8072" stroke="transparent" points="711.5,-10 711.5,-30 731.5,-30 731.5,-10 711.5,-10"/>
<text text-anchor="start" x="735.23" y="-15.4" font-family="Times-12" font-size="14.00"> &#160;Exports</text>
<g id="clust1" class="cluster">
<title>cluster_ServiceTimerModule</title>
<polygon fill="none" stroke="black" stroke-dasharray="1,5" points="8,-70 8,-195 1099,-195 1099,-70 8,-70"/>
</g>
<g id="clust4" class="cluster">
<title>cluster_ServiceTimerModule_imports</title>
<polygon fill="none" stroke="black" points="198,-78 198,-130 1091,-130 1091,-78 198,-78"/>
</g>
<g id="clust2" class="cluster">
<title>cluster_ServiceTimerModule_declarations</title>
<polygon fill="none" stroke="black" points="16,-78 16,-130 190,-130 190,-78 16,-78"/>
</g>
<!-- ServiceTimerComponent -->
<g id="node1" class="node">
<title>ServiceTimerComponent</title>
<polygon fill="#ffffb3" stroke="black" points="181.52,-122 24.48,-122 24.48,-86 181.52,-86 181.52,-122"/>
<text text-anchor="middle" x="103" y="-99.8" font-family="Times,serif" font-size="14.00">ServiceTimerComponent</text>
</g>
<!-- ServiceTimerModule -->
<g id="node2" class="node">
<title>ServiceTimerModule</title>
<polygon fill="#8dd3c7" stroke="black" points="590.74,-187 587.74,-191 566.74,-191 563.74,-187 455.26,-187 455.26,-151 590.74,-151 590.74,-187"/>
<text text-anchor="middle" x="523" y="-164.8" font-family="Times,serif" font-size="14.00">ServiceTimerModule</text>
</g>
<!-- ServiceTimerComponent&#45;&gt;ServiceTimerModule -->
<g id="edge1" class="edge">
<title>ServiceTimerComponent&#45;&gt;ServiceTimerModule</title>
<path fill="none" stroke="black" d="M103,-122.28C103,-143.32 103,-175 103,-175 103,-175 445.05,-175 445.05,-175"/>
<polygon fill="black" stroke="black" points="445.05,-178.5 455.05,-175 445.05,-171.5 445.05,-178.5"/>
</g>
<!-- ServiceTimerRoutingModule -->
<g id="node3" class="node">
<title>ServiceTimerRoutingModule</title>
<polygon fill="#8dd3c7" stroke="black" points="1083.35,-122 1080.35,-126 1059.35,-126 1056.35,-122 902.65,-122 902.65,-86 1083.35,-86 1083.35,-122"/>
<text text-anchor="middle" x="993" y="-99.8" font-family="Times,serif" font-size="14.00">ServiceTimerRoutingModule</text>
</g>
<!-- ServiceTimerRoutingModule&#45;&gt;ServiceTimerModule -->
<g id="edge2" class="edge">
<title>ServiceTimerRoutingModule&#45;&gt;ServiceTimerModule</title>
<path fill="none" stroke="black" d="M993,-122.28C993,-143.32 993,-175 993,-175 993,-175 600.84,-175 600.84,-175"/>
<polygon fill="black" stroke="black" points="600.84,-171.5 590.84,-175 600.84,-178.5 600.84,-171.5"/>
</g>
<!-- TimerButtonLogComponent -->
<g id="node4" class="node">
<title>TimerButtonLogComponent</title>
<polygon fill="#8dd3c7" stroke="black" points="884.21,-122 881.21,-126 860.21,-126 857.21,-122 707.79,-122 707.79,-86 884.21,-86 884.21,-122"/>
<text text-anchor="middle" x="796" y="-99.8" font-family="Times,serif" font-size="14.00">TimerButtonLogComponent</text>
</g>
<!-- TimerButtonLogComponent&#45;&gt;ServiceTimerModule -->
<g id="edge3" class="edge">
<title>TimerButtonLogComponent&#45;&gt;ServiceTimerModule</title>
<path fill="none" stroke="black" d="M796,-122.02C796,-139.37 796,-163 796,-163 796,-163 600.83,-163 600.83,-163"/>
<polygon fill="black" stroke="black" points="600.83,-159.5 590.83,-163 600.83,-166.5 600.83,-159.5"/>
</g>
<!-- TimerDisplayComponent -->
<g id="node5" class="node">
<title>TimerDisplayComponent</title>
<polygon fill="#8dd3c7" stroke="black" points="689.59,-122 686.59,-126 665.59,-126 662.59,-122 530.41,-122 530.41,-86 689.59,-86 689.59,-122"/>
<text text-anchor="middle" x="610" y="-99.8" font-family="Times,serif" font-size="14.00">TimerDisplayComponent</text>
</g>
<!-- TimerDisplayComponent&#45;&gt;ServiceTimerModule -->
<g id="edge4" class="edge">
<title>TimerDisplayComponent&#45;&gt;ServiceTimerModule</title>
<path fill="none" stroke="black" d="M560.66,-122.11C560.66,-122.11 560.66,-140.99 560.66,-140.99"/>
<polygon fill="black" stroke="black" points="557.16,-140.99 560.66,-150.99 564.16,-140.99 557.16,-140.99"/>
</g>
<!-- TimerInputsComponent -->
<g id="node6" class="node">
<title>TimerInputsComponent</title>
<polygon fill="#8dd3c7" stroke="black" points="512.04,-122 509.04,-126 488.04,-126 485.04,-122 361.96,-122 361.96,-86 512.04,-86 512.04,-122"/>
<text text-anchor="middle" x="437" y="-99.8" font-family="Times,serif" font-size="14.00">TimerInputsComponent</text>
</g>
<!-- TimerInputsComponent&#45;&gt;ServiceTimerModule -->
<g id="edge5" class="edge">
<title>TimerInputsComponent&#45;&gt;ServiceTimerModule</title>
<path fill="none" stroke="black" d="M483.7,-122.11C483.7,-122.11 483.7,-140.99 483.7,-140.99"/>
<polygon fill="black" stroke="black" points="480.2,-140.99 483.7,-150.99 487.2,-140.99 480.2,-140.99"/>
</g>
<!-- TimerLogComponent -->
<g id="node7" class="node">
<title>TimerLogComponent</title>
<polygon fill="#8dd3c7" stroke="black" points="344.09,-122 341.09,-126 320.09,-126 317.09,-122 205.91,-122 205.91,-86 344.09,-86 344.09,-122"/>
<text text-anchor="middle" x="275" y="-99.8" font-family="Times,serif" font-size="14.00">TimerLogComponent</text>
</g>
<!-- TimerLogComponent&#45;&gt;ServiceTimerModule -->
<g id="edge6" class="edge">
<title>TimerLogComponent&#45;&gt;ServiceTimerModule</title>
<path fill="none" stroke="black" d="M275,-122.02C275,-139.37 275,-163 275,-163 275,-163 445.23,-163 445.23,-163"/>
<polygon fill="black" stroke="black" points="445.23,-166.5 455.23,-163 445.23,-159.5 445.23,-166.5"/>
</g>
</g>
</svg>
