<?xml version="1.0" encoding="UTF-8" standalone="no"?>
<!DOCTYPE svg PUBLIC "-//W3C//DTD SVG 1.1//EN"
 "http://www.w3.org/Graphics/SVG/1.1/DTD/svg11.dtd">
<!-- Generated by graphviz version 2.47.0 (20210316.0004)
 -->
<!-- Title: dependencies Pages: 1 -->
<svg width="1160pt" height="211pt"
 viewBox="0.00 0.00 1160.00 211.00" xmlns="http://www.w3.org/2000/svg" xmlns:xlink="http://www.w3.org/1999/xlink">
<g id="graph0" class="graph" transform="scale(1 1) rotate(0) translate(4 207)">
<title>dependencies</title>
<polygon fill="white" stroke="transparent" points="-4,4 -4,-207 1156,-207 1156,4 -4,4"/>
<text text-anchor="start" x="555.01" y="-42.4" font-family="Times-12" font-weight="bold" font-size="14.00">Legend</text>
<polygon fill="#ffffb3" stroke="transparent" points="342,-10 342,-30 362,-30 362,-10 342,-10"/>
<text text-anchor="start" x="365.63" y="-15.4" font-family="Times-12" font-size="14.00"> &#160;Declarations</text>
<polygon fill="#8dd3c7" stroke="transparent" points="455,-10 455,-30 475,-30 475,-10 455,-10"/>
<text text-anchor="start" x="478.73" y="-15.4" font-family="Times-12" font-size="14.00"> &#160;Module</text>
<polygon fill="#80b1d3" stroke="transparent" points="541,-10 541,-30 561,-30 561,-10 541,-10"/>
<text text-anchor="start" x="564.78" y="-15.4" font-family="Times-12" font-size="14.00"> &#160;Bootstrap</text>
<polygon fill="#fdb462" stroke="transparent" points="638,-10 638,-30 658,-30 658,-10 638,-10"/>
<text text-anchor="start" x="661.67" y="-15.4" font-family="Times-12" font-size="14.00"> &#160;Providers</text>
<polygon fill="#fb8072" stroke="transparent" points="734,-10 734,-30 754,-30 754,-10 734,-10"/>
<text text-anchor="start" x="757.73" y="-15.4" font-family="Times-12" font-size="14.00"> &#160;Exports</text>
<g id="clust1" class="cluster">
<title>cluster_CountdownTimerModule</title>
<polygon fill="none" stroke="black" stroke-dasharray="1,5" points="8,-70 8,-195 1144,-195 1144,-70 8,-70"/>
</g>
<g id="clust2" class="cluster">
<title>cluster_CountdownTimerModule_declarations</title>
<polygon fill="none" stroke="black" points="940,-78 940,-130 1136,-130 1136,-78 940,-78"/>
</g>
<g id="clust4" class="cluster">
<title>cluster_CountdownTimerModule_imports</title>
<polygon fill="none" stroke="black" points="16,-78 16,-130 932,-130 932,-78 16,-78"/>
</g>
<!-- CountdownTimerComponent -->
<g id="node1" class="node">
<title>CountdownTimerComponent</title>
<polygon fill="#ffffb3" stroke="black" points="1128.38,-122 947.62,-122 947.62,-86 1128.38,-86 1128.38,-122"/>
<text text-anchor="middle" x="1038" y="-99.8" font-family="Times,serif" font-size="14.00">CountdownTimerComponent</text>
</g>
<!-- CountdownTimerModule -->
<g id="node2" class="node">
<title>CountdownTimerModule</title>
<polygon fill="#8dd3c7" stroke="black" points="600.59,-187 597.59,-191 576.59,-191 573.59,-187 441.41,-187 441.41,-151 600.59,-151 600.59,-187"/>
<text text-anchor="middle" x="521" y="-164.8" font-family="Times,serif" font-size="14.00">CountdownTimerModule</text>
</g>
<!-- CountdownTimerComponent&#45;&gt;CountdownTimerModule -->
<g id="edge1" class="edge">
<title>CountdownTimerComponent&#45;&gt;CountdownTimerModule</title>
<path fill="none" stroke="black" d="M1038,-122.28C1038,-143.32 1038,-175 1038,-175 1038,-175 610.65,-175 610.65,-175"/>
<polygon fill="black" stroke="black" points="610.65,-171.5 600.65,-175 610.65,-178.5 610.65,-171.5"/>
</g>
<!-- CountdownTimerRoutingModule -->
<g id="node3" class="node">
<title>CountdownTimerRoutingModule</title>
<polygon fill="#8dd3c7" stroke="black" points="924.21,-122 921.21,-126 900.21,-126 897.21,-122 719.79,-122 719.79,-86 924.21,-86 924.21,-122"/>
<text text-anchor="middle" x="822" y="-99.8" font-family="Times,serif" font-size="14.00">CountdownTimerRoutingModule</text>
</g>
<!-- CountdownTimerRoutingModule&#45;&gt;CountdownTimerModule -->
<g id="edge2" class="edge">
<title>CountdownTimerRoutingModule&#45;&gt;CountdownTimerModule</title>
<path fill="none" stroke="black" d="M822,-122.02C822,-139.37 822,-163 822,-163 822,-163 610.87,-163 610.87,-163"/>
<polygon fill="black" stroke="black" points="610.87,-159.5 600.87,-163 610.87,-166.5 610.87,-159.5"/>
</g>
<!-- TimerButtonLogComponent -->
<g id="node4" class="node">
<title>TimerButtonLogComponent</title>
<polygon fill="#8dd3c7" stroke="black" points="702.21,-122 699.21,-126 678.21,-126 675.21,-122 525.79,-122 525.79,-86 702.21,-86 702.21,-122"/>
<text text-anchor="middle" x="614" y="-99.8" font-family="Times,serif" font-size="14.00">TimerButtonLogComponent</text>
</g>
<!-- TimerButtonLogComponent&#45;&gt;CountdownTimerModule -->
<g id="edge3" class="edge">
<title>TimerButtonLogComponent&#45;&gt;CountdownTimerModule</title>
<path fill="none" stroke="black" d="M563.22,-122.11C563.22,-122.11 563.22,-140.99 563.22,-140.99"/>
<polygon fill="black" stroke="black" points="559.72,-140.99 563.22,-150.99 566.72,-140.99 559.72,-140.99"/>
</g>
<!-- TimerDisplayComponent -->
<g id="node5" class="node">
<title>TimerDisplayComponent</title>
<polygon fill="#8dd3c7" stroke="black" points="507.59,-122 504.59,-126 483.59,-126 480.59,-122 348.41,-122 348.41,-86 507.59,-86 507.59,-122"/>
<text text-anchor="middle" x="428" y="-99.8" font-family="Times,serif" font-size="14.00">TimerDisplayComponent</text>
</g>
<!-- TimerDisplayComponent&#45;&gt;CountdownTimerModule -->
<g id="edge4" class="edge">
<title>TimerDisplayComponent&#45;&gt;CountdownTimerModule</title>
<path fill="none" stroke="black" d="M474.5,-122.11C474.5,-122.11 474.5,-140.99 474.5,-140.99"/>
<polygon fill="black" stroke="black" points="471,-140.99 474.5,-150.99 478,-140.99 471,-140.99"/>
</g>
<!-- TimerInputsComponent -->
<g id="node6" class="node">
<title>TimerInputsComponent</title>
<polygon fill="#8dd3c7" stroke="black" points="330.04,-122 327.04,-126 306.04,-126 303.04,-122 179.96,-122 179.96,-86 330.04,-86 330.04,-122"/>
<text text-anchor="middle" x="255" y="-99.8" font-family="Times,serif" font-size="14.00">TimerInputsComponent</text>
</g>
<!-- TimerInputsComponent&#45;&gt;CountdownTimerModule -->
<g id="edge5" class="edge">
<title>TimerInputsComponent&#45;&gt;CountdownTimerModule</title>
<path fill="none" stroke="black" d="M255,-122.02C255,-139.37 255,-163 255,-163 255,-163 431.19,-163 431.19,-163"/>
<polygon fill="black" stroke="black" points="431.19,-166.5 441.19,-163 431.19,-159.5 431.19,-166.5"/>
</g>
<!-- TimerLogComponent -->
<g id="node7" class="node">
<title>TimerLogComponent</title>
<polygon fill="#8dd3c7" stroke="black" points="162.09,-122 159.09,-126 138.09,-126 135.09,-122 23.91,-122 23.91,-86 162.09,-86 162.09,-122"/>
<text text-anchor="middle" x="93" y="-99.8" font-family="Times,serif" font-size="14.00">TimerLogComponent</text>
</g>
<!-- TimerLogComponent&#45;&gt;CountdownTimerModule -->
<g id="edge6" class="edge">
<title>TimerLogComponent&#45;&gt;CountdownTimerModule</title>
<path fill="none" stroke="black" d="M93,-122.28C93,-143.32 93,-175 93,-175 93,-175 431.25,-175 431.25,-175"/>
<polygon fill="black" stroke="black" points="431.25,-178.5 441.25,-175 431.25,-171.5 431.25,-178.5"/>
</g>
</g>
</svg>
