<?xml version="1.0" encoding="UTF-8" standalone="no"?>
<!DOCTYPE svg PUBLIC "-//W3C//DTD SVG 1.1//EN"
 "http://www.w3.org/Graphics/SVG/1.1/DTD/svg11.dtd">
<!-- Generated by graphviz version 2.47.0 (20210316.0004)
 -->
<!-- Title: dependencies Pages: 1 -->
<svg width="1251pt" height="284pt"
 viewBox="0.00 0.00 1251.00 284.00" xmlns="http://www.w3.org/2000/svg" xmlns:xlink="http://www.w3.org/1999/xlink">
<g id="graph0" class="graph" transform="scale(1 1) rotate(0) translate(4 280)">
<title>dependencies</title>
<polygon fill="white" stroke="transparent" points="-4,4 -4,-280 1247,-280 1247,4 -4,4"/>
<text text-anchor="start" x="600.51" y="-42.4" font-family="Times-12" font-weight="bold" font-size="14.00">Legend</text>
<polygon fill="#ffffb3" stroke="transparent" points="387.5,-10 387.5,-30 407.5,-30 407.5,-10 387.5,-10"/>
<text text-anchor="start" x="411.13" y="-15.4" font-family="Times-12" font-size="14.00"> &#160;Declarations</text>
<polygon fill="#8dd3c7" stroke="transparent" points="500.5,-10 500.5,-30 520.5,-30 520.5,-10 500.5,-10"/>
<text text-anchor="start" x="524.23" y="-15.4" font-family="Times-12" font-size="14.00"> &#160;Module</text>
<polygon fill="#80b1d3" stroke="transparent" points="586.5,-10 586.5,-30 606.5,-30 606.5,-10 586.5,-10"/>
<text text-anchor="start" x="610.28" y="-15.4" font-family="Times-12" font-size="14.00"> &#160;Bootstrap</text>
<polygon fill="#fdb462" stroke="transparent" points="683.5,-10 683.5,-30 703.5,-30 703.5,-10 683.5,-10"/>
<text text-anchor="start" x="707.17" y="-15.4" font-family="Times-12" font-size="14.00"> &#160;Providers</text>
<polygon fill="#fb8072" stroke="transparent" points="779.5,-10 779.5,-30 799.5,-30 799.5,-10 779.5,-10"/>
<text text-anchor="start" x="803.23" y="-15.4" font-family="Times-12" font-size="14.00"> &#160;Exports</text>
<g id="clust1" class="cluster">
<title>cluster_AppModule</title>
<polygon fill="none" stroke="black" stroke-dasharray="1,5" points="8,-70 8,-268 1235,-268 1235,-70 8,-70"/>
</g>
<g id="clust10" class="cluster">
<title>cluster_AppModule_bootstrap</title>
<polygon fill="none" stroke="black" points="571,-208 571,-260 695,-260 695,-208 571,-208"/>
</g>
<g id="clust2" class="cluster">
<title>cluster_AppModule_declarations</title>
<polygon fill="none" stroke="black" points="466,-78 466,-130 1227,-130 1227,-78 466,-78"/>
</g>
<g id="clust8" class="cluster">
<title>cluster_AppModule_imports</title>
<polygon fill="none" stroke="black" points="16,-78 16,-130 458,-130 458,-78 16,-78"/>
</g>
<!-- AppComponent -->
<g id="node1" class="node">
<title>AppComponent</title>
<polygon fill="#ffffb3" stroke="black" points="1218.94,-122 1113.06,-122 1113.06,-86 1218.94,-86 1218.94,-122"/>
<text text-anchor="middle" x="1166" y="-99.8" font-family="Times,serif" font-size="14.00">AppComponent</text>
</g>
<!-- AppModule -->
<g id="node6" class="node">
<title>AppModule</title>
<polygon fill="#8dd3c7" stroke="black" points="674.66,-187 671.66,-191 650.66,-191 647.66,-187 591.34,-187 591.34,-151 674.66,-151 674.66,-187"/>
<text text-anchor="middle" x="633" y="-164.8" font-family="Times,serif" font-size="14.00">AppModule</text>
</g>
<!-- AppComponent&#45;&gt;AppModule -->
<g id="edge1" class="edge">
<title>AppComponent&#45;&gt;AppModule</title>
<path fill="none" stroke="black" d="M1166,-122.29C1166,-144.21 1166,-178 1166,-178 1166,-178 684.82,-178 684.82,-178"/>
<polygon fill="black" stroke="black" points="684.82,-174.5 674.82,-178 684.82,-181.5 684.82,-174.5"/>
</g>
<!-- FloatingBannerComponent -->
<g id="node2" class="node">
<title>FloatingBannerComponent</title>
<polygon fill="#ffffb3" stroke="black" points="1095.43,-122 926.57,-122 926.57,-86 1095.43,-86 1095.43,-122"/>
<text text-anchor="middle" x="1011" y="-99.8" font-family="Times,serif" font-size="14.00">FloatingBannerComponent</text>
</g>
<!-- FloatingBannerComponent&#45;&gt;AppModule -->
<g id="edge2" class="edge">
<title>FloatingBannerComponent&#45;&gt;AppModule</title>
<path fill="none" stroke="black" d="M1011,-122.11C1011,-141.34 1011,-169 1011,-169 1011,-169 684.9,-169 684.9,-169"/>
<polygon fill="black" stroke="black" points="684.9,-165.5 674.9,-169 684.9,-172.5 684.9,-165.5"/>
</g>
<!-- FooterComponent -->
<g id="node3" class="node">
<title>FooterComponent</title>
<polygon fill="#ffffb3" stroke="black" points="908.88,-122 791.12,-122 791.12,-86 908.88,-86 908.88,-122"/>
<text text-anchor="middle" x="850" y="-99.8" font-family="Times,serif" font-size="14.00">FooterComponent</text>
</g>
<!-- FooterComponent&#45;&gt;AppModule -->
<g id="edge3" class="edge">
<title>FooterComponent&#45;&gt;AppModule</title>
<path fill="none" stroke="black" d="M850,-122.03C850,-138.4 850,-160 850,-160 850,-160 684.84,-160 684.84,-160"/>
<polygon fill="black" stroke="black" points="684.84,-156.5 674.84,-160 684.84,-163.5 684.84,-156.5"/>
</g>
<!-- HeaderComponent -->
<g id="node4" class="node">
<title>HeaderComponent</title>
<polygon fill="#ffffb3" stroke="black" points="772.74,-122 651.26,-122 651.26,-86 772.74,-86 772.74,-122"/>
<text text-anchor="middle" x="712" y="-99.8" font-family="Times,serif" font-size="14.00">HeaderComponent</text>
</g>
<!-- HeaderComponent&#45;&gt;AppModule -->
<g id="edge4" class="edge">
<title>HeaderComponent&#45;&gt;AppModule</title>
<path fill="none" stroke="black" d="M662.98,-122.11C662.98,-122.11 662.98,-140.99 662.98,-140.99"/>
<polygon fill="black" stroke="black" points="659.48,-140.99 662.98,-150.99 666.48,-140.99 659.48,-140.99"/>
</g>
<!-- TimerDisplayComponent -->
<g id="node5" class="node">
<title>TimerDisplayComponent</title>
<polygon fill="#ffffb3" stroke="black" points="633.59,-122 474.41,-122 474.41,-86 633.59,-86 633.59,-122"/>
<text text-anchor="middle" x="554" y="-99.8" font-family="Times,serif" font-size="14.00">TimerDisplayComponent</text>
</g>
<!-- TimerDisplayComponent&#45;&gt;AppModule -->
<g id="edge5" class="edge">
<title>TimerDisplayComponent&#45;&gt;AppModule</title>
<path fill="none" stroke="black" d="M612.36,-122.11C612.36,-122.11 612.36,-140.99 612.36,-140.99"/>
<polygon fill="black" stroke="black" points="608.86,-140.99 612.36,-150.99 615.86,-140.99 608.86,-140.99"/>
</g>
<!-- AppComponent  -->
<g id="node10" class="node">
<title>AppComponent </title>
<polygon fill="#80b1d3" stroke="black" points="687.44,-252 578.56,-252 578.56,-216 687.44,-216 687.44,-252"/>
<text text-anchor="middle" x="633" y="-229.8" font-family="Times,serif" font-size="14.00">AppComponent </text>
</g>
<!-- AppModule&#45;&gt;AppComponent  -->
<g id="edge9" class="edge">
<title>AppModule&#45;&gt;AppComponent </title>
<path fill="none" stroke="black" stroke-dasharray="1,5" d="M633,-187.11C633,-187.11 633,-205.99 633,-205.99"/>
<polygon fill="black" stroke="black" points="629.5,-205.99 633,-215.99 636.5,-205.99 629.5,-205.99"/>
</g>
<!-- AppRoutingModule -->
<g id="node7" class="node">
<title>AppRoutingModule</title>
<polygon fill="#8dd3c7" stroke="black" points="450.27,-122 447.27,-126 426.27,-126 423.27,-122 321.73,-122 321.73,-86 450.27,-86 450.27,-122"/>
<text text-anchor="middle" x="386" y="-99.8" font-family="Times,serif" font-size="14.00">AppRoutingModule</text>
</g>
<!-- AppRoutingModule&#45;&gt;AppModule -->
<g id="edge6" class="edge">
<title>AppRoutingModule&#45;&gt;AppModule</title>
<path fill="none" stroke="black" d="M386,-122.03C386,-138.4 386,-160 386,-160 386,-160 581.1,-160 581.1,-160"/>
<polygon fill="black" stroke="black" points="581.1,-163.5 591.1,-160 581.1,-156.5 581.1,-163.5"/>
</g>
<!-- HomeContentModule -->
<g id="node8" class="node">
<title>HomeContentModule</title>
<polygon fill="#8dd3c7" stroke="black" points="304.09,-122 301.09,-126 280.09,-126 277.09,-122 165.91,-122 165.91,-86 304.09,-86 304.09,-122"/>
<text text-anchor="middle" x="235" y="-99.8" font-family="Times,serif" font-size="14.00">HomeContentModule</text>
</g>
<!-- HomeContentModule&#45;&gt;AppModule -->
<g id="edge7" class="edge">
<title>HomeContentModule&#45;&gt;AppModule</title>
<path fill="none" stroke="black" d="M235,-122.11C235,-141.34 235,-169 235,-169 235,-169 581.16,-169 581.16,-169"/>
<polygon fill="black" stroke="black" points="581.16,-172.5 591.16,-169 581.16,-165.5 581.16,-172.5"/>
</g>
<!-- SpinnerComponent -->
<g id="node9" class="node">
<title>SpinnerComponent</title>
<polygon fill="#8dd3c7" stroke="black" points="148.38,-122 145.38,-126 124.38,-126 121.38,-122 23.62,-122 23.62,-86 148.38,-86 148.38,-122"/>
<text text-anchor="middle" x="86" y="-99.8" font-family="Times,serif" font-size="14.00">SpinnerComponent</text>
</g>
<!-- SpinnerComponent&#45;&gt;AppModule -->
<g id="edge8" class="edge">
<title>SpinnerComponent&#45;&gt;AppModule</title>
<path fill="none" stroke="black" d="M86,-122.29C86,-144.21 86,-178 86,-178 86,-178 580.99,-178 580.99,-178"/>
<polygon fill="black" stroke="black" points="580.99,-181.5 590.99,-178 580.99,-174.5 580.99,-181.5"/>
</g>
</g>
</svg>
