<?xml version="1.0" encoding="UTF-8" standalone="no"?>
<!DOCTYPE svg PUBLIC "-//W3C//DTD SVG 1.1//EN"
 "http://www.w3.org/Graphics/SVG/1.1/DTD/svg11.dtd">
<!-- Generated by graphviz version 2.47.0 (20210316.0004)
 -->
<!-- Title: dependencies Pages: 1 -->
<svg width="4037pt" height="360pt"
 viewBox="0.00 0.00 4037.00 360.00" xmlns="http://www.w3.org/2000/svg" xmlns:xlink="http://www.w3.org/1999/xlink">
<g id="graph0" class="graph" transform="scale(1 1) rotate(0) translate(4 356)">
<title>dependencies</title>
<polygon fill="white" stroke="transparent" points="-4,4 -4,-356 4033,-356 4033,4 -4,4"/>
<text text-anchor="start" x="1993.51" y="-42.4" font-family="Times-12" font-weight="bold" font-size="14.00">Legend</text>
<polygon fill="#ffffb3" stroke="transparent" points="1780.5,-10 1780.5,-30 1800.5,-30 1800.5,-10 1780.5,-10"/>
<text text-anchor="start" x="1804.13" y="-15.4" font-family="Times-12" font-size="14.00"> &#160;Declarations</text>
<polygon fill="#8dd3c7" stroke="transparent" points="1893.5,-10 1893.5,-30 1913.5,-30 1913.5,-10 1893.5,-10"/>
<text text-anchor="start" x="1917.23" y="-15.4" font-family="Times-12" font-size="14.00"> &#160;Module</text>
<polygon fill="#80b1d3" stroke="transparent" points="1979.5,-10 1979.5,-30 1999.5,-30 1999.5,-10 1979.5,-10"/>
<text text-anchor="start" x="2003.28" y="-15.4" font-family="Times-12" font-size="14.00"> &#160;Bootstrap</text>
<polygon fill="#fdb462" stroke="transparent" points="2076.5,-10 2076.5,-30 2096.5,-30 2096.5,-10 2076.5,-10"/>
<text text-anchor="start" x="2100.17" y="-15.4" font-family="Times-12" font-size="14.00"> &#160;Providers</text>
<polygon fill="#fb8072" stroke="transparent" points="2172.5,-10 2172.5,-30 2192.5,-30 2192.5,-10 2172.5,-10"/>
<text text-anchor="start" x="2196.23" y="-15.4" font-family="Times-12" font-size="14.00"> &#160;Exports</text>
<g id="clust1" class="cluster">
<title>cluster_AppModule</title>
<polygon fill="none" stroke="black" stroke-dasharray="1,5" points="8,-146 8,-344 1236,-344 1236,-146 8,-146"/>
</g>
<g id="clust2" class="cluster">
<title>cluster_AppModule_declarations</title>
<polygon fill="none" stroke="black" points="16,-154 16,-206 778,-206 778,-154 16,-154"/>
</g>
<g id="clust8" class="cluster">
<title>cluster_AppModule_imports</title>
<polygon fill="none" stroke="black" points="786,-154 786,-206 1228,-206 1228,-154 786,-154"/>
</g>
<g id="clust10" class="cluster">
<title>cluster_AppModule_bootstrap</title>
<polygon fill="none" stroke="black" points="537,-284 537,-336 661,-336 661,-284 537,-284"/>
</g>
<g id="clust18" class="cluster">
<title>cluster_CountdownTimerModule</title>
<polygon fill="none" stroke="black" stroke-dasharray="1,5" points="1244,-146 1244,-271 2202,-271 2202,-146 1244,-146"/>
</g>
<g id="clust19" class="cluster">
<title>cluster_CountdownTimerModule_declarations</title>
<polygon fill="none" stroke="black" points="1252,-154 1252,-206 1448,-206 1448,-154 1252,-154"/>
</g>
<g id="clust21" class="cluster">
<title>cluster_CountdownTimerModule_imports</title>
<polygon fill="none" stroke="black" points="1456,-154 1456,-206 2194,-206 2194,-154 1456,-154"/>
</g>
<g id="clust31" class="cluster">
<title>cluster_DynamicDivsModule</title>
<polygon fill="none" stroke="black" stroke-dasharray="1,5" points="2612,-146 2612,-271 3175,-271 3175,-146 2612,-146"/>
</g>
<g id="clust32" class="cluster">
<title>cluster_DynamicDivsModule_declarations</title>
<polygon fill="none" stroke="black" points="2620,-154 2620,-206 2796,-206 2796,-154 2620,-154"/>
</g>
<g id="clust34" class="cluster">
<title>cluster_DynamicDivsModule_imports</title>
<polygon fill="none" stroke="black" points="2804,-154 2804,-206 3167,-206 3167,-154 2804,-154"/>
</g>
<g id="clust44" class="cluster">
<title>cluster_EcommercePageModule</title>
<polygon fill="none" stroke="black" stroke-dasharray="1,5" points="3183,-146 3183,-271 3613,-271 3613,-146 3183,-146"/>
</g>
<g id="clust45" class="cluster">
<title>cluster_EcommercePageModule_declarations</title>
<polygon fill="none" stroke="black" points="3413,-154 3413,-206 3605,-206 3605,-154 3413,-154"/>
</g>
<g id="clust47" class="cluster">
<title>cluster_EcommercePageModule_imports</title>
<polygon fill="none" stroke="black" points="3191,-154 3191,-206 3405,-206 3405,-154 3191,-154"/>
</g>
<g id="clust57" class="cluster">
<title>cluster_HomeContentModule</title>
<polygon fill="none" stroke="black" stroke-dasharray="1,5" points="803,-70 803,-138 1203,-138 1203,-70 803,-70"/>
</g>
<g id="clust58" class="cluster">
<title>cluster_HomeContentModule_declarations</title>
<polygon fill="none" stroke="black" points="1019,-78 1019,-130 1195,-130 1195,-78 1019,-78"/>
</g>
<g id="clust60" class="cluster">
<title>cluster_HomeContentModule_imports</title>
<polygon fill="none" stroke="black" points="811,-78 811,-130 1011,-130 1011,-78 811,-78"/>
</g>
<g id="clust70" class="cluster">
<title>cluster_ServiceTimerModule</title>
<polygon fill="none" stroke="black" stroke-dasharray="1,5" points="2210,-146 2210,-271 2604,-271 2604,-146 2210,-146"/>
</g>
<g id="clust71" class="cluster">
<title>cluster_ServiceTimerModule_declarations</title>
<polygon fill="none" stroke="black" points="2422,-154 2422,-206 2596,-206 2596,-154 2422,-154"/>
</g>
<g id="clust73" class="cluster">
<title>cluster_ServiceTimerModule_imports</title>
<polygon fill="none" stroke="black" points="2218,-154 2218,-206 2414,-206 2414,-154 2218,-154"/>
</g>
<g id="clust83" class="cluster">
<title>cluster_StudentMarksModule</title>
<polygon fill="none" stroke="black" stroke-dasharray="1,5" points="3621,-70 3621,-206 4021,-206 4021,-70 3621,-70"/>
</g>
<g id="clust84" class="cluster">
<title>cluster_StudentMarksModule_declarations</title>
<polygon fill="none" stroke="black" points="3837,-78 3837,-130 4013,-130 4013,-78 3837,-78"/>
</g>
<g id="clust86" class="cluster">
<title>cluster_StudentMarksModule_imports</title>
<polygon fill="none" stroke="black" points="3629,-78 3629,-130 3829,-130 3829,-78 3629,-78"/>
</g>
<!-- AppComponent -->
<g id="node1" class="node">
<title>AppComponent</title>
<polygon fill="#ffffb3" stroke="black" points="129.94,-198 24.06,-198 24.06,-162 129.94,-162 129.94,-198"/>
<text text-anchor="middle" x="77" y="-175.8" font-family="Times,serif" font-size="14.00">AppComponent</text>
</g>
<!-- AppModule -->
<g id="node6" class="node">
<title>AppModule</title>
<polygon fill="#8dd3c7" stroke="black" points="640.66,-263 637.66,-267 616.66,-267 613.66,-263 557.34,-263 557.34,-227 640.66,-227 640.66,-263"/>
<text text-anchor="middle" x="599" y="-240.8" font-family="Times,serif" font-size="14.00">AppModule</text>
</g>
<!-- AppComponent&#45;&gt;AppModule -->
<g id="edge1" class="edge">
<title>AppComponent&#45;&gt;AppModule</title>
<path fill="none" stroke="black" d="M77,-198.29C77,-220.21 77,-254 77,-254 77,-254 547.16,-254 547.16,-254"/>
<polygon fill="black" stroke="black" points="547.16,-257.5 557.16,-254 547.16,-250.5 547.16,-257.5"/>
</g>
<!-- FloatingBannerComponent -->
<g id="node2" class="node">
<title>FloatingBannerComponent</title>
<polygon fill="#ffffb3" stroke="black" points="592.43,-198 423.57,-198 423.57,-162 592.43,-162 592.43,-198"/>
<text text-anchor="middle" x="508" y="-175.8" font-family="Times,serif" font-size="14.00">FloatingBannerComponent</text>
</g>
<!-- FloatingBannerComponent&#45;&gt;AppModule -->
<g id="edge2" class="edge">
<title>FloatingBannerComponent&#45;&gt;AppModule</title>
<path fill="none" stroke="black" d="M574.69,-198.11C574.69,-198.11 574.69,-216.99 574.69,-216.99"/>
<polygon fill="black" stroke="black" points="571.19,-216.99 574.69,-226.99 578.19,-216.99 571.19,-216.99"/>
</g>
<!-- FooterComponent -->
<g id="node3" class="node">
<title>FooterComponent</title>
<polygon fill="#ffffb3" stroke="black" points="405.88,-198 288.12,-198 288.12,-162 405.88,-162 405.88,-198"/>
<text text-anchor="middle" x="347" y="-175.8" font-family="Times,serif" font-size="14.00">FooterComponent</text>
</g>
<!-- FooterComponent&#45;&gt;AppModule -->
<g id="edge3" class="edge">
<title>FooterComponent&#45;&gt;AppModule</title>
<path fill="none" stroke="black" d="M347,-198.03C347,-214.4 347,-236 347,-236 347,-236 547.1,-236 547.1,-236"/>
<polygon fill="black" stroke="black" points="547.1,-239.5 557.1,-236 547.1,-232.5 547.1,-239.5"/>
</g>
<!-- HeaderComponent -->
<g id="node4" class="node">
<title>HeaderComponent</title>
<polygon fill="#ffffb3" stroke="black" points="269.74,-198 148.26,-198 148.26,-162 269.74,-162 269.74,-198"/>
<text text-anchor="middle" x="209" y="-175.8" font-family="Times,serif" font-size="14.00">HeaderComponent</text>
</g>
<!-- HeaderComponent&#45;&gt;AppModule -->
<g id="edge4" class="edge">
<title>HeaderComponent&#45;&gt;AppModule</title>
<path fill="none" stroke="black" d="M209,-198.11C209,-217.34 209,-245 209,-245 209,-245 547.26,-245 547.26,-245"/>
<polygon fill="black" stroke="black" points="547.26,-248.5 557.26,-245 547.26,-241.5 547.26,-248.5"/>
</g>
<!-- TimerDisplayComponent -->
<g id="node5" class="node">
<title>TimerDisplayComponent</title>
<polygon fill="#ffffb3" stroke="black" points="769.59,-198 766.59,-202 745.59,-202 742.59,-198 610.41,-198 610.41,-162 769.59,-162 769.59,-198"/>
<text text-anchor="middle" x="690" y="-175.8" font-family="Times,serif" font-size="14.00">TimerDisplayComponent</text>
</g>
<!-- TimerDisplayComponent&#45;&gt;AppModule -->
<g id="edge5" class="edge">
<title>TimerDisplayComponent&#45;&gt;AppModule</title>
<path fill="none" stroke="black" d="M625.64,-198.11C625.64,-198.11 625.64,-216.99 625.64,-216.99"/>
<polygon fill="black" stroke="black" points="622.14,-216.99 625.64,-226.99 629.14,-216.99 622.14,-216.99"/>
</g>
<!-- CountdownTimerModule -->
<g id="node12" class="node">
<title>CountdownTimerModule</title>
<polygon fill="#8dd3c7" stroke="black" points="1739.59,-263 1736.59,-267 1715.59,-267 1712.59,-263 1580.41,-263 1580.41,-227 1739.59,-227 1739.59,-263"/>
<text text-anchor="middle" x="1660" y="-240.8" font-family="Times,serif" font-size="14.00">CountdownTimerModule</text>
</g>
<!-- TimerDisplayComponent&#45;&gt;CountdownTimerModule -->
<g id="edge13" class="edge">
<title>TimerDisplayComponent&#45;&gt;CountdownTimerModule</title>
<path fill="none" stroke="black" d="M730.85,-198.02C730.85,-215.37 730.85,-239 730.85,-239 730.85,-239 1570.38,-239 1570.38,-239"/>
<polygon fill="black" stroke="black" points="1570.38,-242.5 1580.38,-239 1570.38,-235.5 1570.38,-242.5"/>
</g>
<!-- ServiceTimerModule -->
<g id="node27" class="node">
<title>ServiceTimerModule</title>
<polygon fill="#8dd3c7" stroke="black" points="2353.74,-263 2350.74,-267 2329.74,-267 2326.74,-263 2218.26,-263 2218.26,-227 2353.74,-227 2353.74,-263"/>
<text text-anchor="middle" x="2286" y="-240.8" font-family="Times,serif" font-size="14.00">ServiceTimerModule</text>
</g>
<!-- TimerDisplayComponent&#45;&gt;ServiceTimerModule -->
<g id="edge28" class="edge">
<title>TimerDisplayComponent&#45;&gt;ServiceTimerModule</title>
<path fill="none" stroke="black" d="M692.16,-198.11C692.16,-207.9 692.16,-218 692.16,-218 692.16,-218 2220.61,-218 2220.61,-218 2220.61,-218 2220.61,-218.88 2220.61,-218.88"/>
<polygon fill="black" stroke="black" points="2217.11,-216.84 2220.61,-226.84 2224.11,-216.84 2217.11,-216.84"/>
</g>
<!-- AppComponent  -->
<g id="node10" class="node">
<title>AppComponent </title>
<polygon fill="#80b1d3" stroke="black" points="653.44,-328 544.56,-328 544.56,-292 653.44,-292 653.44,-328"/>
<text text-anchor="middle" x="599" y="-305.8" font-family="Times,serif" font-size="14.00">AppComponent </text>
</g>
<!-- AppModule&#45;&gt;AppComponent  -->
<g id="edge9" class="edge">
<title>AppModule&#45;&gt;AppComponent </title>
<path fill="none" stroke="black" stroke-dasharray="1,5" d="M599,-263.11C599,-263.11 599,-281.99 599,-281.99"/>
<polygon fill="black" stroke="black" points="595.5,-281.99 599,-291.99 602.5,-281.99 595.5,-281.99"/>
</g>
<!-- AppRoutingModule -->
<g id="node7" class="node">
<title>AppRoutingModule</title>
<polygon fill="#8dd3c7" stroke="black" points="922.27,-198 919.27,-202 898.27,-202 895.27,-198 793.73,-198 793.73,-162 922.27,-162 922.27,-198"/>
<text text-anchor="middle" x="858" y="-175.8" font-family="Times,serif" font-size="14.00">AppRoutingModule</text>
</g>
<!-- AppRoutingModule&#45;&gt;AppModule -->
<g id="edge6" class="edge">
<title>AppRoutingModule&#45;&gt;AppModule</title>
<path fill="none" stroke="black" d="M858,-198.11C858,-217.34 858,-245 858,-245 858,-245 650.9,-245 650.9,-245"/>
<polygon fill="black" stroke="black" points="650.9,-241.5 640.9,-245 650.9,-248.5 650.9,-241.5"/>
</g>
<!-- HomeContentModule -->
<g id="node8" class="node">
<title>HomeContentModule</title>
<polygon fill="#8dd3c7" stroke="black" points="1078.09,-198 1075.09,-202 1054.09,-202 1051.09,-198 939.91,-198 939.91,-162 1078.09,-162 1078.09,-198"/>
<text text-anchor="middle" x="1009" y="-175.8" font-family="Times,serif" font-size="14.00">HomeContentModule</text>
</g>
<!-- HomeContentModule&#45;&gt;AppModule -->
<g id="edge7" class="edge">
<title>HomeContentModule&#45;&gt;AppModule</title>
<path fill="none" stroke="black" d="M1009,-198.28C1009,-219.32 1009,-251 1009,-251 1009,-251 650.95,-251 650.95,-251"/>
<polygon fill="black" stroke="black" points="650.95,-247.5 640.95,-251 650.95,-254.5 650.95,-247.5"/>
</g>
<!-- SpinnerComponent -->
<g id="node9" class="node">
<title>SpinnerComponent</title>
<polygon fill="#8dd3c7" stroke="black" points="1220.38,-198 1217.38,-202 1196.38,-202 1193.38,-198 1095.62,-198 1095.62,-162 1220.38,-162 1220.38,-198"/>
<text text-anchor="middle" x="1158" y="-175.8" font-family="Times,serif" font-size="14.00">SpinnerComponent</text>
</g>
<!-- SpinnerComponent&#45;&gt;AppModule -->
<g id="edge8" class="edge">
<title>SpinnerComponent&#45;&gt;AppModule</title>
<path fill="none" stroke="black" d="M1178.81,-198.25C1178.81,-221.02 1178.81,-257 1178.81,-257 1178.81,-257 650.7,-257 650.7,-257"/>
<polygon fill="black" stroke="black" points="650.7,-253.5 640.7,-257 650.7,-260.5 650.7,-253.5"/>
</g>
<!-- DynamicDivsModule -->
<g id="node18" class="node">
<title>DynamicDivsModule</title>
<polygon fill="#8dd3c7" stroke="black" points="2873.81,-263 2870.81,-267 2849.81,-267 2846.81,-263 2736.19,-263 2736.19,-227 2873.81,-227 2873.81,-263"/>
<text text-anchor="middle" x="2805" y="-240.8" font-family="Times,serif" font-size="14.00">DynamicDivsModule</text>
</g>
<!-- SpinnerComponent&#45;&gt;DynamicDivsModule -->
<g id="edge19" class="edge">
<title>SpinnerComponent&#45;&gt;DynamicDivsModule</title>
<path fill="none" stroke="black" d="M1137.19,-198.21C1137.19,-203.55 1137.19,-208 1137.19,-208 1137.19,-208 2753.41,-208 2753.41,-208 2753.41,-208 2753.41,-216.93 2753.41,-216.93"/>
<polygon fill="black" stroke="black" points="2749.91,-216.93 2753.41,-226.93 2756.91,-216.93 2749.91,-216.93"/>
</g>
<!-- CountdownTimerComponent -->
<g id="node11" class="node">
<title>CountdownTimerComponent</title>
<polygon fill="#ffffb3" stroke="black" points="1440.38,-198 1259.62,-198 1259.62,-162 1440.38,-162 1440.38,-198"/>
<text text-anchor="middle" x="1350" y="-175.8" font-family="Times,serif" font-size="14.00">CountdownTimerComponent</text>
</g>
<!-- CountdownTimerComponent&#45;&gt;CountdownTimerModule -->
<g id="edge10" class="edge">
<title>CountdownTimerComponent&#45;&gt;CountdownTimerModule</title>
<path fill="none" stroke="black" d="M1350,-198.24C1350,-213.57 1350,-233 1350,-233 1350,-233 1570.17,-233 1570.17,-233"/>
<polygon fill="black" stroke="black" points="1570.17,-236.5 1580.17,-233 1570.17,-229.5 1570.17,-236.5"/>
</g>
<!-- CountdownTimerRoutingModule -->
<g id="node13" class="node">
<title>CountdownTimerRoutingModule</title>
<polygon fill="#8dd3c7" stroke="black" points="1668.21,-198 1665.21,-202 1644.21,-202 1641.21,-198 1463.79,-198 1463.79,-162 1668.21,-162 1668.21,-198"/>
<text text-anchor="middle" x="1566" y="-175.8" font-family="Times,serif" font-size="14.00">CountdownTimerRoutingModule</text>
</g>
<!-- CountdownTimerRoutingModule&#45;&gt;CountdownTimerModule -->
<g id="edge11" class="edge">
<title>CountdownTimerRoutingModule&#45;&gt;CountdownTimerModule</title>
<path fill="none" stroke="black" d="M1624.28,-198.11C1624.28,-198.11 1624.28,-216.99 1624.28,-216.99"/>
<polygon fill="black" stroke="black" points="1620.78,-216.99 1624.28,-226.99 1627.78,-216.99 1620.78,-216.99"/>
</g>
<!-- TimerButtonLogComponent -->
<g id="node14" class="node">
<title>TimerButtonLogComponent</title>
<polygon fill="#8dd3c7" stroke="black" points="2186.21,-198 2183.21,-202 2162.21,-202 2159.21,-198 2009.79,-198 2009.79,-162 2186.21,-162 2186.21,-198"/>
<text text-anchor="middle" x="2098" y="-175.8" font-family="Times,serif" font-size="14.00">TimerButtonLogComponent</text>
</g>
<!-- TimerButtonLogComponent&#45;&gt;CountdownTimerModule -->
<g id="edge12" class="edge">
<title>TimerButtonLogComponent&#45;&gt;CountdownTimerModule</title>
<path fill="none" stroke="black" d="M2098,-198.13C2098,-218.57 2098,-249 2098,-249 2098,-249 1749.57,-249 1749.57,-249"/>
<polygon fill="black" stroke="black" points="1749.57,-245.5 1739.57,-249 1749.57,-252.5 1749.57,-245.5"/>
</g>
<!-- TimerButtonLogComponent&#45;&gt;ServiceTimerModule -->
<g id="edge27" class="edge">
<title>TimerButtonLogComponent&#45;&gt;ServiceTimerModule</title>
<path fill="none" stroke="black" d="M2186.24,-180C2206.94,-180 2223.09,-180 2223.09,-180 2223.09,-180 2223.09,-216.89 2223.09,-216.89"/>
<polygon fill="black" stroke="black" points="2219.59,-216.89 2223.09,-226.89 2226.59,-216.89 2219.59,-216.89"/>
</g>
<!-- TimerInputsComponent -->
<g id="node15" class="node">
<title>TimerInputsComponent</title>
<polygon fill="#8dd3c7" stroke="black" points="1992.04,-198 1989.04,-202 1968.04,-202 1965.04,-198 1841.96,-198 1841.96,-162 1992.04,-162 1992.04,-198"/>
<text text-anchor="middle" x="1917" y="-175.8" font-family="Times,serif" font-size="14.00">TimerInputsComponent</text>
</g>
<!-- TimerInputsComponent&#45;&gt;CountdownTimerModule -->
<g id="edge14" class="edge">
<title>TimerInputsComponent&#45;&gt;CountdownTimerModule</title>
<path fill="none" stroke="black" d="M1891.91,-198.27C1891.91,-216.56 1891.91,-242 1891.91,-242 1891.91,-242 1749.81,-242 1749.81,-242"/>
<polygon fill="black" stroke="black" points="1749.81,-238.5 1739.81,-242 1749.81,-245.5 1749.81,-238.5"/>
</g>
<!-- TimerInputsComponent&#45;&gt;ServiceTimerModule -->
<g id="edge29" class="edge">
<title>TimerInputsComponent&#45;&gt;ServiceTimerModule</title>
<path fill="none" stroke="black" d="M1942.09,-198.01C1942.09,-214.05 1942.09,-235 1942.09,-235 1942.09,-235 2208.05,-235 2208.05,-235"/>
<polygon fill="black" stroke="black" points="2208.05,-238.5 2218.05,-235 2208.05,-231.5 2208.05,-238.5"/>
</g>
<!-- TimerLogComponent -->
<g id="node16" class="node">
<title>TimerLogComponent</title>
<polygon fill="#8dd3c7" stroke="black" points="1824.09,-198 1821.09,-202 1800.09,-202 1797.09,-198 1685.91,-198 1685.91,-162 1824.09,-162 1824.09,-198"/>
<text text-anchor="middle" x="1755" y="-175.8" font-family="Times,serif" font-size="14.00">TimerLogComponent</text>
</g>
<!-- TimerLogComponent&#45;&gt;CountdownTimerModule -->
<g id="edge15" class="edge">
<title>TimerLogComponent&#45;&gt;CountdownTimerModule</title>
<path fill="none" stroke="black" d="M1712.75,-198.11C1712.75,-198.11 1712.75,-216.99 1712.75,-216.99"/>
<polygon fill="black" stroke="black" points="1709.25,-216.99 1712.75,-226.99 1716.25,-216.99 1709.25,-216.99"/>
</g>
<!-- TimerLogComponent&#45;&gt;ServiceTimerModule -->
<g id="edge30" class="edge">
<title>TimerLogComponent&#45;&gt;ServiceTimerModule</title>
<path fill="none" stroke="black" d="M1781.8,-198.01C1781.8,-220.49 1781.8,-256 1781.8,-256 1781.8,-256 2208.26,-256 2208.26,-256"/>
<polygon fill="black" stroke="black" points="2208.26,-259.5 2218.26,-256 2208.26,-252.5 2208.26,-259.5"/>
</g>
<!-- DynamicDivsComponent -->
<g id="node17" class="node">
<title>DynamicDivsComponent</title>
<polygon fill="#ffffb3" stroke="black" points="2787.59,-198 2628.41,-198 2628.41,-162 2787.59,-162 2787.59,-198"/>
<text text-anchor="middle" x="2708" y="-175.8" font-family="Times,serif" font-size="14.00">DynamicDivsComponent</text>
</g>
<!-- DynamicDivsComponent&#45;&gt;DynamicDivsModule -->
<g id="edge16" class="edge">
<title>DynamicDivsComponent&#45;&gt;DynamicDivsModule</title>
<path fill="none" stroke="black" d="M2770.48,-198.11C2770.48,-198.11 2770.48,-216.99 2770.48,-216.99"/>
<polygon fill="black" stroke="black" points="2766.98,-216.99 2770.48,-226.99 2773.98,-216.99 2766.98,-216.99"/>
</g>
<!-- DetectBottomDirective -->
<g id="node19" class="node">
<title>DetectBottomDirective</title>
<polygon fill="#8dd3c7" stroke="black" points="3159.12,-198 3156.12,-202 3135.12,-202 3132.12,-198 3012.88,-198 3012.88,-162 3159.12,-162 3159.12,-198"/>
<text text-anchor="middle" x="3086" y="-175.8" font-family="Times,serif" font-size="14.00">DetectBottomDirective</text>
</g>
<!-- DetectBottomDirective&#45;&gt;DynamicDivsModule -->
<g id="edge17" class="edge">
<title>DetectBottomDirective&#45;&gt;DynamicDivsModule</title>
<path fill="none" stroke="black" d="M3061.56,-198.02C3061.56,-215.37 3061.56,-239 3061.56,-239 3061.56,-239 2883.75,-239 2883.75,-239"/>
<polygon fill="black" stroke="black" points="2883.75,-235.5 2873.75,-239 2883.75,-242.5 2883.75,-235.5"/>
</g>
<!-- EcommercePageModule -->
<g id="node22" class="node">
<title>EcommercePageModule</title>
<polygon fill="#8dd3c7" stroke="black" points="3374.61,-263 3371.61,-267 3350.61,-267 3347.61,-263 3221.39,-263 3221.39,-227 3374.61,-227 3374.61,-263"/>
<text text-anchor="middle" x="3298" y="-240.8" font-family="Times,serif" font-size="14.00">EcommercePageModule</text>
</g>
<!-- DetectBottomDirective&#45;&gt;EcommercePageModule -->
<g id="edge21" class="edge">
<title>DetectBottomDirective&#45;&gt;EcommercePageModule</title>
<path fill="none" stroke="black" d="M3110.44,-198.28C3110.44,-219.32 3110.44,-251 3110.44,-251 3110.44,-251 3211.17,-251 3211.17,-251"/>
<polygon fill="black" stroke="black" points="3211.17,-254.5 3221.17,-251 3211.17,-247.5 3211.17,-254.5"/>
</g>
<!-- DynamicDivsRoutingModule -->
<g id="node20" class="node">
<title>DynamicDivsRoutingModule</title>
<polygon fill="#8dd3c7" stroke="black" points="2994.43,-198 2991.43,-202 2970.43,-202 2967.43,-198 2811.57,-198 2811.57,-162 2994.43,-162 2994.43,-198"/>
<text text-anchor="middle" x="2903" y="-175.8" font-family="Times,serif" font-size="14.00">DynamicDivsRoutingModule</text>
</g>
<!-- DynamicDivsRoutingModule&#45;&gt;DynamicDivsModule -->
<g id="edge18" class="edge">
<title>DynamicDivsRoutingModule&#45;&gt;DynamicDivsModule</title>
<path fill="none" stroke="black" d="M2842.72,-198.11C2842.72,-198.11 2842.72,-216.99 2842.72,-216.99"/>
<polygon fill="black" stroke="black" points="2839.22,-216.99 2842.72,-226.99 2846.22,-216.99 2839.22,-216.99"/>
</g>
<!-- EcommercePageComponent -->
<g id="node21" class="node">
<title>EcommercePageComponent</title>
<polygon fill="#ffffb3" stroke="black" points="3596.9,-198 3421.1,-198 3421.1,-162 3596.9,-162 3596.9,-198"/>
<text text-anchor="middle" x="3509" y="-175.8" font-family="Times,serif" font-size="14.00">EcommercePageComponent</text>
</g>
<!-- EcommercePageComponent&#45;&gt;EcommercePageModule -->
<g id="edge20" class="edge">
<title>EcommercePageComponent&#45;&gt;EcommercePageModule</title>
<path fill="none" stroke="black" d="M3509,-198.11C3509,-217.34 3509,-245 3509,-245 3509,-245 3384.77,-245 3384.77,-245"/>
<polygon fill="black" stroke="black" points="3384.77,-241.5 3374.77,-245 3384.77,-248.5 3384.77,-241.5"/>
</g>
<!-- EcommercePageRoutingModule -->
<g id="node23" class="node">
<title>EcommercePageRoutingModule</title>
<polygon fill="#8dd3c7" stroke="black" points="3397.23,-198 3394.23,-202 3373.23,-202 3370.23,-198 3198.77,-198 3198.77,-162 3397.23,-162 3397.23,-198"/>
<text text-anchor="middle" x="3298" y="-175.8" font-family="Times,serif" font-size="14.00">EcommercePageRoutingModule</text>
</g>
<!-- EcommercePageRoutingModule&#45;&gt;EcommercePageModule -->
<g id="edge22" class="edge">
<title>EcommercePageRoutingModule&#45;&gt;EcommercePageModule</title>
<path fill="none" stroke="black" d="M3298,-198.11C3298,-198.11 3298,-216.99 3298,-216.99"/>
<polygon fill="black" stroke="black" points="3294.5,-216.99 3298,-226.99 3301.5,-216.99 3294.5,-216.99"/>
</g>
<!-- HomeContentComponent -->
<g id="node24" class="node">
<title>HomeContentComponent</title>
<polygon fill="#ffffb3" stroke="black" points="1186.88,-122 1027.12,-122 1027.12,-86 1186.88,-86 1186.88,-122"/>
<text text-anchor="middle" x="1107" y="-99.8" font-family="Times,serif" font-size="14.00">HomeContentComponent</text>
</g>
<!-- HomeContentComponent&#45;&gt;HomeContentModule -->
<g id="edge23" class="edge">
<title>HomeContentComponent&#45;&gt;HomeContentModule</title>
<path fill="none" stroke="black" d="M1052.55,-122.01C1052.55,-122.01 1052.55,-151.85 1052.55,-151.85"/>
<polygon fill="black" stroke="black" points="1049.05,-151.85 1052.55,-161.85 1056.05,-151.85 1049.05,-151.85"/>
</g>
<!-- HomeContentRoutingModule -->
<g id="node25" class="node">
<title>HomeContentRoutingModule</title>
<polygon fill="#8dd3c7" stroke="black" points="1002.71,-122 999.71,-126 978.71,-126 975.71,-122 819.29,-122 819.29,-86 1002.71,-86 1002.71,-122"/>
<text text-anchor="middle" x="911" y="-99.8" font-family="Times,serif" font-size="14.00">HomeContentRoutingModule</text>
</g>
<!-- HomeContentRoutingModule&#45;&gt;HomeContentModule -->
<g id="edge24" class="edge">
<title>HomeContentRoutingModule&#45;&gt;HomeContentModule</title>
<path fill="none" stroke="black" d="M971.28,-122.01C971.28,-122.01 971.28,-151.85 971.28,-151.85"/>
<polygon fill="black" stroke="black" points="967.78,-151.85 971.28,-161.85 974.78,-151.85 967.78,-151.85"/>
</g>
<!-- ServiceTimerComponent -->
<g id="node26" class="node">
<title>ServiceTimerComponent</title>
<polygon fill="#ffffb3" stroke="black" points="2587.52,-198 2430.48,-198 2430.48,-162 2587.52,-162 2587.52,-198"/>
<text text-anchor="middle" x="2509" y="-175.8" font-family="Times,serif" font-size="14.00">ServiceTimerComponent</text>
</g>
<!-- ServiceTimerComponent&#45;&gt;ServiceTimerModule -->
<g id="edge25" class="edge">
<title>ServiceTimerComponent&#45;&gt;ServiceTimerModule</title>
<path fill="none" stroke="black" d="M2509,-198.11C2509,-217.34 2509,-245 2509,-245 2509,-245 2363.82,-245 2363.82,-245"/>
<polygon fill="black" stroke="black" points="2363.82,-241.5 2353.82,-245 2363.82,-248.5 2363.82,-241.5"/>
</g>
<!-- ServiceTimerRoutingModule -->
<g id="node28" class="node">
<title>ServiceTimerRoutingModule</title>
<polygon fill="#8dd3c7" stroke="black" points="2406.35,-198 2403.35,-202 2382.35,-202 2379.35,-198 2225.65,-198 2225.65,-162 2406.35,-162 2406.35,-198"/>
<text text-anchor="middle" x="2316" y="-175.8" font-family="Times,serif" font-size="14.00">ServiceTimerRoutingModule</text>
</g>
<!-- ServiceTimerRoutingModule&#45;&gt;ServiceTimerModule -->
<g id="edge26" class="edge">
<title>ServiceTimerRoutingModule&#45;&gt;ServiceTimerModule</title>
<path fill="none" stroke="black" d="M2289.72,-198.11C2289.72,-198.11 2289.72,-216.99 2289.72,-216.99"/>
<polygon fill="black" stroke="black" points="2286.22,-216.99 2289.72,-226.99 2293.22,-216.99 2286.22,-216.99"/>
</g>
<!-- StudentMarksComponent -->
<g id="node29" class="node">
<title>StudentMarksComponent</title>
<polygon fill="#ffffb3" stroke="black" points="4004.88,-122 3845.12,-122 3845.12,-86 4004.88,-86 4004.88,-122"/>
<text text-anchor="middle" x="3925" y="-99.8" font-family="Times,serif" font-size="14.00">StudentMarksComponent</text>
</g>
<!-- StudentMarksModule -->
<g id="node30" class="node">
<title>StudentMarksModule</title>
<polygon fill="#8dd3c7" stroke="black" points="3896.09,-198 3893.09,-202 3872.09,-202 3869.09,-198 3757.91,-198 3757.91,-162 3896.09,-162 3896.09,-198"/>
<text text-anchor="middle" x="3827" y="-175.8" font-family="Times,serif" font-size="14.00">StudentMarksModule</text>
</g>
<!-- StudentMarksComponent&#45;&gt;StudentMarksModule -->
<g id="edge31" class="edge">
<title>StudentMarksComponent&#45;&gt;StudentMarksModule</title>
<path fill="none" stroke="black" d="M3870.55,-122.01C3870.55,-122.01 3870.55,-151.85 3870.55,-151.85"/>
<polygon fill="black" stroke="black" points="3867.05,-151.85 3870.55,-161.85 3874.05,-151.85 3867.05,-151.85"/>
</g>
<!-- StudentMarksRoutingModule -->
<g id="node31" class="node">
<title>StudentMarksRoutingModule</title>
<polygon fill="#8dd3c7" stroke="black" points="3820.71,-122 3817.71,-126 3796.71,-126 3793.71,-122 3637.29,-122 3637.29,-86 3820.71,-86 3820.71,-122"/>
<text text-anchor="middle" x="3729" y="-99.8" font-family="Times,serif" font-size="14.00">StudentMarksRoutingModule</text>
</g>
<!-- StudentMarksRoutingModule&#45;&gt;StudentMarksModule -->
<g id="edge32" class="edge">
<title>StudentMarksRoutingModule&#45;&gt;StudentMarksModule</title>
<path fill="none" stroke="black" d="M3789.28,-122.01C3789.28,-122.01 3789.28,-151.85 3789.28,-151.85"/>
<polygon fill="black" stroke="black" points="3785.78,-151.85 3789.28,-161.85 3792.78,-151.85 3785.78,-151.85"/>
</g>
</g>
</svg>
